<svg width="32" height="32" viewBox="0 0 32 32" fill="none" xmlns="http://www.w3.org/2000/svg">
<rect width="32" height="32" rx="16" fill="black"/>
<path d="M16.05 8.44907C20.3 8.44907 23.5 11.7478 23.5 15.9462C23.4378 17.1011 23.2993 17.8522 22.9747 18.6896C22.7394 19.2966 22.9378 19.9992 23.5007 20.3264C24.1214 20.6871 24.9273 20.4481 25.1969 19.7828C25.6839 18.5809 25.8939 17.5603 26 15.9462C26 11.1481 21.95 6 16.05 6C10.15 6 6 10.5483 6 15.9462C6 21.3442 10.35 25.8925 16.05 25.8925C17.5529 25.8774 18.5406 25.6904 19.7898 25.1622C20.4523 24.8821 20.6746 24.0676 20.2959 23.456C19.9593 22.9124 19.2671 22.7322 18.6733 22.9693C17.8532 23.2969 17.1355 23.43 16.05 23.4934C11.9 23.4934 8.5 20.0447 8.5 15.9462C8.5 11.8478 11.8 8.44907 16.05 8.44907Z" fill="white"/>
<path d="M16.0753 12.6636C17.9261 12.6636 19.3197 14.1079 19.3197 15.9461C19.2925 16.4535 19.2319 16.7829 19.0895 17.151C18.9874 17.4148 19.0737 17.72 19.3179 17.8627C19.589 18.0211 19.9416 17.9165 20.0589 17.6254C20.2708 17.0994 20.3622 16.6526 20.4084 15.9461C20.4084 13.8453 18.6447 11.5913 16.0753 11.5913C13.506 11.5913 11.6987 13.5827 11.6987 15.9461C11.6987 18.3096 13.5931 20.301 16.0753 20.301C16.7301 20.2944 17.1603 20.2125 17.7047 19.981C17.9933 19.8582 18.0901 19.5034 17.9257 19.2363C17.7785 18.9974 17.4746 18.9183 17.2141 19.0226C16.8585 19.1649 16.5465 19.2229 16.0753 19.2506C14.2681 19.2506 12.7874 17.7406 12.7874 15.9461C12.7874 14.1517 14.2245 12.6636 16.0753 12.6636Z" fill="white"/>
<path d="M20.7852 22.4518C20.7852 21.5313 21.5313 20.7852 22.4518 20.7852V20.7852C23.3723 20.7852 24.1185 21.5313 24.1185 22.4518V24.1185H22.4518C21.5313 24.1185 20.7852 23.3723 20.7852 22.4518V22.4518Z" fill="white"/>
</svg>
