<svg width="1238" height="500" viewBox="0 0 1238 500" fill="none" xmlns="http://www.w3.org/2000/svg">
<path d="M416.31 258.15C416.31 258.15 418.66 331.15 479.58 379.75C540.5 428.35 624.9 431.87 693.23 436.49C761.56 441.11 814 402.43 822 344C830 285.57 777.7 268.37 749.37 201.8C721.04 135.23 723.56 113.36 663.62 72.42C603.68 31.48 509.86 56.57 460.7 126.71C411.54 196.85 416.31 258.15 416.31 258.15Z" fill="white"/>
<path opacity="0.7" d="M416.31 258.15C416.31 258.15 418.66 331.15 479.58 379.75C540.5 428.35 624.9 431.87 693.23 436.49C761.56 441.11 814 402.43 822 344C830 285.57 777.7 268.37 749.37 201.8C721.04 135.23 723.56 113.36 663.62 72.42C603.68 31.48 509.86 56.57 460.7 126.71C411.54 196.85 416.31 258.15 416.31 258.15Z" fill="white"/>
<path d="M713.49 407.21C753.365 407.21 785.69 397.62 785.69 385.79C785.69 373.96 753.365 364.37 713.49 364.37C673.615 364.37 641.29 373.96 641.29 385.79C641.29 397.62 673.615 407.21 713.49 407.21Z" fill="#263238" stroke="#263238" stroke-width="1.193" stroke-linecap="round" stroke-linejoin="round"/>
<path d="M713.49 374.22C747.64 374.22 776.24 381.22 783.75 390.71C784.936 389.337 785.62 387.603 785.69 385.79C785.69 373.95 753.36 364.36 713.49 364.36C673.62 364.36 641.28 373.95 641.28 385.79C641.35 387.603 642.034 389.337 643.22 390.71C650.73 381.26 679.33 374.22 713.49 374.22Z" fill="white" stroke="#263238" stroke-width="1.193" stroke-linecap="round" stroke-linejoin="round"/>
<path d="M703.63 404.52C679.51 403.43 661.31 398.52 661.31 392.52C661.322 391.865 661.528 391.229 661.9 390.69" stroke="white" stroke-width="1.193" stroke-linecap="round" stroke-linejoin="round"/>
<path d="M759.6 386.68C763.73 388.43 766.09 390.43 766.09 392.56C766.09 399.29 742.63 404.74 713.7 404.74H712.45" stroke="white" stroke-width="1.193" stroke-linecap="round" stroke-linejoin="round"/>
<path d="M668.36 386.45C677.43 382.82 694.36 380.37 713.7 380.37C724.705 380.285 735.696 381.185 746.54 383.06" stroke="white" stroke-width="1.193" stroke-linecap="round" stroke-linejoin="round"/>
<path d="M702.94 396.74C696.83 395.89 692.74 394.34 692.74 392.56C692.74 389.87 702.13 387.69 713.74 387.69C725.35 387.69 734.69 389.87 734.69 392.56C734.69 394.87 727.79 396.8 718.53 397.3" stroke="white" stroke-width="1.193" stroke-linecap="round" stroke-linejoin="round"/>
<path d="M423.52 299.68C455.01 290.73 521.27 273.07 557.84 271.74C607 270 690 305.68 741.82 311.93C793.64 318.18 828.46 316.4 828.46 316.4" stroke="#ABABAB" stroke-width="1.193" stroke-linecap="round" stroke-linejoin="round"/>
<path d="M406 304.79C406 304.79 408.72 303.96 413.49 302.57" stroke="#263238" stroke-width="1.193" stroke-linecap="round" stroke-linejoin="round"/>
<path d="M814.47 249.12C796.318 245.133 777.748 243.376 759.17 243.89C720.75 245.18 679.17 250.26 627.76 256.89C576.35 263.52 503.14 226.89 453.36 240.48C403.58 254.07 407.36 258.16 407.36 258.16" stroke="#B8B8B8" stroke-width="1.193" stroke-linecap="round" stroke-linejoin="round"/>
<path d="M828.63 252.8C828.63 252.8 826.69 252.16 823.18 251.23" stroke="white" stroke-width="1.193" stroke-linecap="round" stroke-linejoin="round"/>
<path d="M736.45 158.35C735.897 156.102 734.606 154.105 732.784 152.678C730.962 151.25 728.715 150.474 726.4 150.474C724.085 150.474 721.838 151.25 720.016 152.678C718.194 154.105 716.903 156.102 716.35 158.35H736.45Z" stroke="#263238" stroke-width="1.193" stroke-linecap="round" stroke-linejoin="round"/>
<path d="M838 158.35C837.393 155.789 836.011 153.477 834.042 151.728C832.074 149.98 829.615 148.881 827 148.58C827.822 144.236 827.674 139.764 826.567 135.484C825.459 131.203 823.419 127.221 820.593 123.821C817.766 120.421 814.223 117.688 810.217 115.818C806.211 113.947 801.841 112.985 797.42 113C790.36 113 783.525 115.484 778.112 120.016C772.698 124.548 769.052 130.84 767.81 137.79C764.971 135.57 761.565 134.193 757.981 133.816C754.396 133.439 750.778 134.077 747.54 135.658C744.301 137.239 741.572 139.698 739.664 142.756C737.756 145.814 736.746 149.346 736.75 152.95C736.756 154.785 737.022 156.61 737.54 158.37L838 158.35Z" stroke="white" stroke-width="1.193" stroke-linecap="round" stroke-linejoin="round"/>
<path d="M557.57 182.49C557.295 181.343 556.641 180.323 555.715 179.593C554.789 178.863 553.644 178.465 552.465 178.465C551.286 178.465 550.141 178.863 549.215 179.593C548.289 180.323 547.635 181.343 547.36 182.49H557.57Z" stroke="#263238" stroke-width="1.193" stroke-linecap="round" stroke-linejoin="round"/>
<path d="M609.12 182.49C608.816 181.183 608.116 180.001 607.116 179.106C606.115 178.211 604.863 177.647 603.53 177.49C604.011 175.473 604.076 173.378 603.721 171.335C603.367 169.292 602.599 167.342 601.466 165.605C600.333 163.868 598.858 162.38 597.131 161.232C595.404 160.083 593.461 159.299 591.42 158.926C589.38 158.554 587.286 158.6 585.264 159.064C583.242 159.527 581.337 160.398 579.663 161.622C577.988 162.846 576.581 164.399 575.527 166.185C574.473 167.971 573.793 169.953 573.53 172.01C572.089 170.884 570.36 170.185 568.541 169.994C566.722 169.802 564.886 170.126 563.242 170.928C561.598 171.729 560.213 172.977 559.243 174.528C558.274 176.079 557.76 177.871 557.76 179.7C557.765 180.634 557.899 181.563 558.16 182.46L609.12 182.49Z" stroke="#263238" stroke-width="1.193" stroke-linecap="round" stroke-linejoin="round"/>
<path d="M603.93 198.63C603.758 197.906 603.346 197.261 602.762 196.799C602.177 196.338 601.455 196.087 600.71 196.087C599.965 196.087 599.243 196.338 598.658 196.799C598.074 197.261 597.662 197.906 597.49 198.63H603.93Z" stroke="#263238" stroke-width="1.193" stroke-linecap="round" stroke-linejoin="round"/>
<path d="M636.47 198.63C636.276 197.808 635.832 197.067 635.2 196.506C634.568 195.946 633.779 195.595 632.94 195.5C633.049 194.916 633.102 194.324 633.1 193.73C633.07 191.345 632.157 189.055 630.537 187.304C628.918 185.553 626.706 184.465 624.33 184.25C621.955 184.034 619.584 184.708 617.676 186.139C615.767 187.571 614.458 189.659 614 192C613.09 191.29 611.999 190.85 610.851 190.729C609.702 190.609 608.544 190.814 607.506 191.321C606.469 191.828 605.595 192.616 604.984 193.595C604.373 194.574 604.049 195.706 604.05 196.86C604.051 197.449 604.135 198.035 604.3 198.6L636.47 198.63Z" stroke="#263238" stroke-width="1.193" stroke-linecap="round" stroke-linejoin="round"/>
<path d="M534.65 313.83C534.298 313.835 533.952 313.741 533.65 313.56C533.213 313.29 532.896 312.862 532.766 312.365C532.635 311.868 532.701 311.34 532.95 310.89C533.44 310.03 657.08 175.2 713.65 125.76C713.847 125.602 714.097 125.524 714.35 125.542C714.602 125.561 714.838 125.674 715.01 125.86C715.174 126.059 715.256 126.313 715.237 126.57C715.219 126.827 715.101 127.067 714.91 127.24C658.62 176.47 536.81 312 536.32 312.85C536.153 313.147 535.911 313.394 535.618 313.566C535.324 313.738 534.99 313.829 534.65 313.83Z" fill="#263238"/>
<path d="M541.48 287C541.48 287 547.61 280.46 551.29 280.46C554.97 280.46 561.92 286.59 561.51 289.86C561.1 293.13 554.97 290.27 554.97 290.27C554.97 290.27 549.24 298.04 543.52 296.81C537.8 295.58 541.48 287 541.48 287Z" fill="white" stroke="#263238" stroke-width="1.193" stroke-linecap="round" stroke-linejoin="round"/>
<path d="M555 290.25C555 290.25 558.75 292.85 559.08 294.68C559.41 296.51 554.92 301.68 549.93 302.84C544.94 304 542.27 301.17 543.77 298.51C545.27 295.85 551.22 290.49 555 290.25Z" fill="white" stroke="#263238" stroke-width="1.193" stroke-linecap="round" stroke-linejoin="round"/>
<path d="M709 266.56V131.27C709 131.27 706.27 141.06 706.27 141.77" stroke="#263238" stroke-width="1.193" stroke-linecap="round" stroke-linejoin="round"/>
<path d="M765.42 273.69H661.68V356.81H765.42V273.69Z" fill="white" stroke="#263238" stroke-width="1.193" stroke-linecap="round" stroke-linejoin="round"/>
<path d="M710.48 273.34V268.58C710.48 268.264 710.355 267.962 710.131 267.739C709.908 267.515 709.606 267.39 709.29 267.39C708.974 267.39 708.672 267.515 708.449 267.739C708.225 267.962 708.1 268.264 708.1 268.58V273.34H710.48Z" fill="#263238"/>
<path d="M720 261.76V262C719.903 261.818 719.759 261.665 719.583 261.558C719.408 261.451 719.206 261.393 719 261.39C718.682 261.39 718.376 261.516 718.151 261.741C717.926 261.967 717.8 262.272 717.8 262.59V275.3C717.8 276.272 717.415 277.204 716.729 277.892C716.043 278.58 715.112 278.967 714.14 278.97C713.637 278.971 713.139 278.865 712.68 278.66C712.415 279.055 712.299 279.532 712.354 280.005C712.409 280.478 712.631 280.916 712.98 281.24C713.362 281.312 713.751 281.349 714.14 281.35C714.935 281.35 715.721 281.194 716.455 280.889C717.189 280.585 717.856 280.14 718.418 279.578C718.98 279.016 719.425 278.349 719.729 277.615C720.033 276.881 720.19 276.094 720.19 275.3V269.41H722.93L720 261.76Z" fill="#263238"/>
<path d="M709.1 130C709.1 130 711.22 122.47 709.34 123.17C707.46 123.87 709.1 130 709.1 130Z" stroke="#263238" stroke-width="1.193" stroke-linecap="round" stroke-linejoin="round"/>
<path d="M709.1 130C709.1 130 701.1 127.17 701.81 129.76C702.52 132.35 709.1 130 709.1 130Z" stroke="#263238" stroke-width="1.193" stroke-linecap="round" stroke-linejoin="round"/>
<path d="M536.59 195.63C536.59 195.63 526.72 190.1 507.36 192.87C488 195.64 484.31 211.6 487.47 228.19C490.63 244.78 508.94 258.83 511.71 257.65C514.48 256.47 510.92 219.33 517.24 212.22C523.56 205.11 544.1 206.3 545.24 200.77C546.38 195.24 536.59 195.63 536.59 195.63Z" fill="#263238" stroke="#263238" stroke-width="1.193" stroke-linecap="round" stroke-linejoin="round"/>
<path d="M502.18 205.48L504.18 218.55C504.18 218.55 491.78 252.4 493.79 257.1C495.8 261.8 514.56 263.46 514.56 263.46C514.56 263.46 545.06 267.15 554.11 263.46C563.16 259.77 558.47 249.05 557.46 246.04C556.45 243.03 550.76 218.89 550.76 218.89C550.76 218.89 552.76 213.19 552.76 210.18C552.76 207.17 552.42 198.78 551.08 196.77C549.74 194.76 526.28 192.41 515.89 194.09C505.5 195.77 500.84 198.45 502.18 205.48Z" fill="#757575" stroke="#263238" stroke-width="1.193" stroke-linecap="round" stroke-linejoin="round"/>
<path d="M507.55 220.57C507.55 220.57 507.21 249.72 508.89 255.42C510.57 261.12 517.27 267.82 531.34 266.14C545.41 264.46 546.76 251.06 546.76 251.06L545.76 219.9L507.55 220.57Z" fill="white" stroke="#263238" stroke-width="1.193" stroke-linecap="round" stroke-linejoin="round"/>
<path d="M531.68 241.51C531.682 242.009 531.536 242.497 531.26 242.913C530.984 243.328 530.592 243.653 530.131 243.845C529.671 244.038 529.164 244.089 528.675 243.993C528.185 243.897 527.735 243.657 527.382 243.305C527.028 242.953 526.787 242.504 526.689 242.015C526.591 241.526 526.64 241.019 526.831 240.558C527.021 240.097 527.344 239.703 527.759 239.425C528.174 239.148 528.661 239 529.16 239C529.49 238.999 529.818 239.063 530.124 239.188C530.429 239.314 530.707 239.498 530.941 239.732C531.175 239.965 531.361 240.242 531.488 240.547C531.615 240.852 531.68 241.18 531.68 241.51Z" stroke="#263238" stroke-width="1.193" stroke-miterlimit="10"/>
<path d="M531.34 252.07C531.34 252.403 531.241 252.728 531.056 253.004C530.871 253.281 530.608 253.496 530.301 253.623C529.993 253.75 529.655 253.783 529.329 253.717C529.002 253.651 528.703 253.49 528.469 253.254C528.234 253.018 528.075 252.718 528.011 252.392C527.947 252.065 527.982 251.727 528.111 251.42C528.239 251.113 528.456 250.852 528.734 250.668C529.012 250.485 529.337 250.388 529.67 250.39C529.89 250.39 530.108 250.433 530.311 250.518C530.515 250.603 530.699 250.726 530.854 250.883C531.01 251.039 531.132 251.224 531.216 251.428C531.299 251.632 531.341 251.85 531.34 252.07Z" fill="#263238"/>
<path d="M521.22 230.76C522.29 231.92 522.66 233.31 522.06 233.88C521.46 234.45 520.06 233.97 519.01 232.82C517.96 231.67 517.56 230.28 518.17 229.71C518.78 229.14 520.15 229.61 521.22 230.76Z" fill="#263238"/>
<path d="M534.83 230.76C533.76 231.92 533.38 233.31 533.99 233.88C534.6 234.45 535.99 233.97 536.99 232.82C537.99 231.67 538.44 230.28 537.83 229.71C537.22 229.14 535.9 229.61 534.83 230.76Z" fill="#263238"/>
<path d="M514.06 226.81C514.811 225.702 515.89 224.857 517.145 224.395C518.401 223.932 519.77 223.874 521.06 224.23" stroke="#263238" stroke-width="1.193" stroke-linecap="round" stroke-linejoin="round"/>
<path d="M534.3 224.6C534.3 224.6 539.08 223.13 540.56 227.18" stroke="#263238" stroke-width="1.193" stroke-linecap="round" stroke-linejoin="round"/>
<path d="M550.44 411.62C550.44 411.62 555.71 408.46 558.63 407.22C558.904 407.094 559.184 406.984 559.47 406.89C562.05 406.03 569.36 406.46 576.23 402.16C583.1 397.86 579.67 392.7 574.51 391.41C569.35 390.12 563.77 388.41 563.77 388.41L562.48 368.2C562.48 368.2 547 372.5 541.84 374.65C536.68 376.8 539.69 407.32 540.12 409.9C540.55 412.48 540.55 414.2 550.44 411.62Z" fill="#263238" stroke="#263238" stroke-width="1.193" stroke-linecap="round" stroke-linejoin="round"/>
<path d="M567.64 402.16C558.64 403.88 558.64 405.6 548.72 407.32C545.814 407.9 542.851 408.142 539.89 408.04C539.99 408.96 540.07 409.61 540.12 409.9C540.55 412.48 540.55 414.2 550.44 411.62C550.44 411.62 555.71 408.46 558.63 407.22C558.904 407.094 559.184 406.984 559.47 406.89C562.05 406.03 569.36 406.46 576.23 402.16C578.44 400.79 579.57 399.32 579.94 397.92C576.035 399.847 571.903 401.272 567.64 402.16Z" fill="white" stroke="#263238" stroke-width="1.193" stroke-linecap="round" stroke-linejoin="round"/>
<path d="M571.22 391.15C571.22 391.15 570.89 414.61 570.22 419.63C569.55 424.65 570.55 431.03 578.22 431.03C585.89 431.03 601.01 426.03 606.37 425.03C611.73 424.03 620.45 421.67 624.13 413.3C627.81 404.93 605.37 405.92 605.37 405.92L606.71 388.83C606.71 388.83 583.62 393.49 571.22 391.15Z" fill="#263238" stroke="#263238" stroke-width="1.193" stroke-linecap="round" stroke-linejoin="round"/>
<path d="M624.17 413.27C624.581 412.457 624.68 411.522 624.45 410.64C622.153 413.759 619.038 416.181 615.45 417.64C607.45 420.99 592.32 424.64 580.93 426.36C575.72 427.12 572.42 426.27 570.35 425.13C571.09 428.38 573.26 431.05 578.25 431.05C585.96 431.05 601.04 426.05 606.4 425.05C611.76 424.05 620.49 421.64 624.17 413.27Z" fill="white" stroke="#263238" stroke-width="1.193" stroke-linecap="round" stroke-linejoin="round"/>
<path d="M605.41 405.89C605.41 405.89 607.08 411.59 602.41 415.28" stroke="white" stroke-width="1.193" stroke-linecap="round" stroke-linejoin="round"/>
<path d="M568.88 378.75C568.88 378.75 568.36 388.94 568.93 390.98C571.07 398.72 571.75 396.91 587.84 396.57C603.93 396.23 610.43 389.81 612.11 385.79C613.79 381.77 612.11 373.05 611.44 370.03C610.77 367.01 605.44 366.03 603.39 366.35C601.34 366.67 569.88 375.4 568.88 378.75Z" fill="#757575" stroke="#263238" stroke-width="1.193" stroke-linecap="round" stroke-linejoin="round"/>
<path d="M458.28 404.22V426.74C458.287 427.621 458.535 428.484 458.997 429.235C459.459 429.985 460.117 430.596 460.9 431L497.1 449.69C497.744 450.025 498.456 450.21 499.181 450.23C499.907 450.251 500.628 450.107 501.29 449.81L554.62 429.48C555.471 429.099 556.193 428.479 556.701 427.697C557.208 426.915 557.479 426.002 557.48 425.07V397.85L496.48 416.28L458.28 404.22Z" fill="white"/>
<path opacity="0.18" d="M499.17 415.47L496.49 416.28L458.28 404.22V426.74C458.287 427.621 458.535 428.484 458.997 429.235C459.459 429.985 460.117 430.596 460.9 431L497.1 449.69C497.74 450.025 498.448 450.209 499.17 450.23V415.47Z" fill="black"/>
<path d="M458.28 404.22V426.74C458.287 427.621 458.535 428.484 458.997 429.235C459.459 429.985 460.117 430.596 460.9 431L497.1 449.69C497.744 450.025 498.456 450.21 499.181 450.23C499.907 450.251 500.628 450.107 501.29 449.81L554.62 429.48C555.471 429.099 556.193 428.479 556.701 427.697C557.208 426.915 557.479 426.002 557.48 425.07V397.85L496.48 416.28L458.28 404.22Z" stroke="#263238" stroke-width="1.193" stroke-linecap="round" stroke-linejoin="round"/>
<path d="M514 366.2L455.5 385C455.043 385.147 454.644 385.435 454.362 385.823C454.08 386.212 453.928 386.68 453.93 387.16V403.84C453.939 404.26 454.064 404.669 454.292 405.023C454.52 405.376 454.841 405.659 455.22 405.84L496 425.25C496.275 425.381 496.573 425.456 496.877 425.47C497.181 425.484 497.485 425.436 497.77 425.33L559 402.42C559.433 402.259 559.807 401.97 560.071 401.591C560.336 401.212 560.478 400.762 560.48 400.3L560.59 384.65C560.587 384.132 560.408 383.631 560.083 383.227C559.758 382.824 559.305 382.543 558.8 382.43L515.16 366.14C514.774 366.063 514.376 366.084 514 366.2Z" fill="white"/>
<path d="M495.93 425.24C496.205 425.371 496.503 425.446 496.807 425.46C497.111 425.473 497.415 425.426 497.7 425.32L559 402.42C559.433 402.259 559.807 401.97 560.071 401.591C560.336 401.212 560.478 400.762 560.48 400.3L560.59 384.65C560.592 384.117 560.4 383.602 560.05 383.2L496.8 406.56L495.93 425.24Z" fill="white"/>
<path opacity="0.5" d="M495.93 425.24C496.205 425.371 496.503 425.446 496.807 425.46C497.111 425.473 497.415 425.426 497.7 425.32L559 402.42C559.433 402.259 559.807 401.97 560.071 401.591C560.336 401.212 560.478 400.762 560.48 400.3L560.59 384.65C560.592 384.117 560.4 383.602 560.05 383.2L496.8 406.56L495.93 425.24Z" fill="white"/>
<path d="M453.93 387.11V403.79C453.939 404.21 454.064 404.619 454.292 404.973C454.52 405.326 454.841 405.609 455.22 405.79L496 425.25C496.272 425.381 496.568 425.456 496.87 425.47V406.56L454 386.72C453.961 386.847 453.938 386.978 453.93 387.11Z" fill="white"/>
<path d="M514 366.2L455.5 385C455.043 385.147 454.644 385.435 454.362 385.823C454.08 386.212 453.928 386.68 453.93 387.16V403.84C453.939 404.26 454.064 404.669 454.292 405.023C454.52 405.376 454.841 405.659 455.22 405.84L496 425.25C496.275 425.381 496.573 425.456 496.877 425.47C497.181 425.484 497.485 425.436 497.77 425.33L559 402.42C559.433 402.259 559.807 401.97 560.071 401.591C560.336 401.212 560.478 400.762 560.48 400.3L560.59 384.65C560.587 384.132 560.408 383.631 560.083 383.227C559.758 382.824 559.305 382.543 558.8 382.43L515.16 366.14C514.774 366.063 514.376 366.084 514 366.2V366.2Z" stroke="#263238" stroke-width="1.193" stroke-linecap="round" stroke-linejoin="round"/>
<path d="M594.35 335.52C594.35 335.52 602.05 339.2 606.08 346.58C610.11 353.96 607.08 368.02 604.73 372.38C602.38 376.74 586.64 378.75 581.28 378.75C575.92 378.75 574.91 378.08 574.91 378.08C574.91 378.08 557.82 381.43 547.09 383.44C536.36 385.45 539.09 360.32 542.4 348.92C545.71 337.52 564.52 331.83 572.23 331.83C579.94 331.83 594.35 335.52 594.35 335.52Z" fill="#263238" stroke="#263238" stroke-width="1.193" stroke-linecap="round" stroke-linejoin="round"/>
<path d="M574.91 378.08C574.91 378.08 589.32 373.08 595.35 360.32" stroke="white" stroke-width="1.193" stroke-linecap="round" stroke-linejoin="round"/>
<path d="M588.65 370.7C593.294 368.753 597.508 365.909 601.05 362.33" stroke="white" stroke-width="1.193" stroke-linecap="round" stroke-linejoin="round"/>
<path d="M554.8 346.58C554.8 346.58 558.8 367.69 556.8 376.4C554.8 385.11 543.06 386.46 540.38 385.45C537.7 384.44 539.04 363.67 539.04 353.28C539.04 342.89 549.44 343.56 554.8 346.58Z" fill="#757575" stroke="#263238" stroke-width="1.193" stroke-linecap="round" stroke-linejoin="round"/>
<path d="M469.34 290.27C469.34 290.27 467 304 468.67 310.72C469.521 314.463 471.116 317.996 473.36 321.11C473.36 321.11 464.98 333.51 466.66 343.89C468.34 354.27 472.66 355.62 472.66 355.62C472.66 355.62 468.98 374.73 475.66 381.43C482.34 388.13 497.11 395.5 513.53 392.49C529.95 389.48 541.01 388.8 544.36 383.1C547.71 377.4 545.7 352.27 545.7 352.27C545.7 352.27 545.03 324.46 544.36 307.36C543.69 290.26 541.36 276.53 533.3 269.83C525.24 263.13 489.73 273.52 479.01 280.55C468.29 287.58 469.34 290.27 469.34 290.27Z" fill="white"/>
<path opacity="0.3" d="M471.73 290.27C471.73 290.27 469.38 304.01 471.06 310.72C471.906 314.464 473.501 317.999 475.75 321.11C475.75 321.11 467.37 333.51 469.05 343.89C470.73 354.27 475.05 355.62 475.05 355.62C475.05 355.62 471.36 374.73 478.05 381.43C484.74 388.13 499.54 395.5 516 392.49C532.46 389.48 543.49 388.8 546.84 383.1C550.19 377.4 548.18 352.27 548.18 352.27C548.18 352.27 547.51 324.46 546.84 307.36C546.17 290.26 543.84 276.53 535.78 269.83C527.72 263.13 492.21 273.52 481.49 280.55C470.77 287.58 471.73 290.27 471.73 290.27Z" fill="black"/>
<path d="M469.34 290.27C469.34 290.27 467 304 468.67 310.72C469.521 314.463 471.116 317.996 473.36 321.11C473.36 321.11 464.98 333.51 466.66 343.89C468.34 354.27 472.66 355.62 472.66 355.62C472.66 355.62 468.98 374.73 475.66 381.43C482.34 388.13 497.11 395.5 513.53 392.49C529.95 389.48 541.01 388.8 544.36 383.1C547.71 377.4 545.7 352.27 545.7 352.27C545.7 352.27 545.03 324.46 544.36 307.36C543.69 290.26 541.36 276.53 533.3 269.83C525.24 263.13 489.73 273.52 479.01 280.55C468.29 287.58 469.34 290.27 469.34 290.27Z" stroke="#263238" stroke-width="1.193" stroke-linecap="round" stroke-linejoin="round"/>
<path d="M473.36 321.11C478.548 324.649 484.484 326.942 490.705 327.809C496.925 328.676 503.261 328.095 509.22 326.11" stroke="#263238" stroke-width="1.193" stroke-linecap="round" stroke-linejoin="round"/>
<path d="M472.69 355.62C472.69 355.62 489.78 372.38 517.94 356.29" stroke="#263238" stroke-width="1.193" stroke-linecap="round" stroke-linejoin="round"/>
<path d="M539.38 273.85C539.38 273.85 533.02 264.13 524.3 258.77C515.58 253.41 493.14 249.39 484.09 247.71C475.04 246.03 465.32 246.71 462.64 256.71C459.96 266.71 460.29 283.52 462.97 290.89C465.65 298.26 476.71 302.62 485.43 297.6C494.15 292.58 518.27 273.13 526.65 272.13C535.03 271.13 538.71 277.54 539.38 273.85Z" fill="#757575"/>
<path opacity="0.3" d="M520.79 272C525.9 269.87 513.12 273.7 512.27 272.42C511.42 271.14 521.21 264.76 523.34 263.91C525.47 263.06 510.99 266.04 511.42 263.91C511.85 261.78 525.47 261.35 516.1 259.22C506.73 257.09 476.1 251.55 470.1 249.42C469.641 249.271 469.206 249.055 468.81 248.78C467.258 249.58 465.902 250.712 464.836 252.094C463.769 253.476 463.02 255.076 462.64 256.78C459.96 266.83 460.29 283.59 462.97 290.96C465.31 297.38 473.97 301.51 481.97 299.16C485.66 296.16 489.07 292.22 494.84 288.59C506.31 281.33 515.68 274.09 520.79 272Z" fill="black"/>
<path d="M539.38 273.85C539.38 273.85 533.02 264.13 524.3 258.77C515.58 253.41 493.14 249.39 484.09 247.71C475.04 246.03 465.32 246.71 462.64 256.71C459.96 266.71 460.29 283.52 462.97 290.89C465.65 298.26 476.71 302.62 485.43 297.6C494.15 292.58 518.27 273.13 526.65 272.13C535.03 271.13 538.71 277.54 539.38 273.85Z" stroke="#263238" stroke-width="1.193" stroke-linecap="round" stroke-linejoin="round"/>
<path d="M575.58 319.43C575.58 319.43 583.29 320.43 588.31 322.43C593.33 324.43 596.69 336.84 594.68 338.51C592.67 340.18 588.68 338.18 588.68 338.18C585.528 339.289 582.271 340.073 578.96 340.52C574.91 340.88 570.55 321.78 575.58 319.43Z" fill="white" stroke="#263238" stroke-width="1.193" stroke-linecap="round" stroke-linejoin="round"/>
<path d="M550.11 318.42C550.11 318.42 551.45 318.42 558.82 315.07C566.19 311.72 572.23 311.72 576.92 319.07C581.61 326.42 583.62 335.5 580.92 340.86C578.22 346.22 568.19 349.91 562.82 349.91C557.45 349.91 556.82 342.91 556.82 342.91C556.82 342.91 556.15 331.85 552.82 327.83C549.49 323.81 548.77 319.43 550.11 318.42Z" fill="#757575" stroke="#263238" stroke-width="1.193" stroke-linecap="round" stroke-linejoin="round"/>
<path d="M525.31 273.85C532.68 271.17 542.07 272.85 545.42 282.23C548.77 291.61 551.78 319.09 551.78 319.09C551.78 319.09 560.16 320.09 563.51 323.79C566.86 327.49 568.51 336.86 567.87 341.55C567.23 346.24 555.47 354.95 542.07 355.29C528.67 355.63 518.94 349.29 514.25 332.16C509.56 315.03 511.42 289 511.42 289C511.42 289 513.12 281.33 515.68 279.62" fill="white"/>
<path opacity="0.3" d="M567.87 341.55C568.54 336.86 566.87 327.47 563.51 323.79C563.38 323.64 563.22 323.5 563.08 323.36C563.482 326.372 563.722 329.403 563.8 332.44C564.47 352.11 536.98 348.82 531.44 334.57C528.44 326.9 527.6 293.25 518.66 290.7C513.5 289.23 511.74 293.27 511.18 296.96C511 306.61 511.32 321.48 514.25 332.16C518.94 349.26 528.66 355.62 542.07 355.29C555.48 354.96 567.2 346.24 567.87 341.55Z" fill="black"/>
<path d="M525.31 273.85C532.68 271.17 542.07 272.85 545.42 282.23C548.77 291.61 551.78 319.09 551.78 319.09C551.78 319.09 560.16 320.09 563.51 323.79C566.86 327.49 568.51 336.86 567.87 341.55C567.23 346.24 555.47 354.95 542.07 355.29C528.67 355.63 518.94 349.29 514.25 332.16C509.56 315.03 511.42 289 511.42 289C511.42 289 513.12 281.33 515.68 279.62" stroke="#263238" stroke-width="1.193" stroke-linecap="round" stroke-linejoin="round"/>
<path d="M551.78 319.09C551.78 319.09 554.4 331.3 540.94 338" stroke="#263238" stroke-width="1.193" stroke-linecap="round" stroke-linejoin="round"/>
<path d="M485.1 106.25C485.1 103.47 486.38 101.42 489.27 101.42C492.16 101.42 493.5 103.42 493.5 106.25V116C493.5 118.78 492.21 120.83 489.27 120.83C486.33 120.83 485.1 118.83 485.1 116V106.25ZM486.35 116.09C486.35 118.17 487.17 119.69 489.27 119.69C491.37 119.69 492.27 118.17 492.27 116.09V106.17C492.27 104.1 491.43 102.57 489.27 102.57C487.11 102.57 486.35 104.1 486.35 106.17V116.09Z" fill="#263238"/>
<path d="M495.49 106.25C495.49 103.47 496.77 101.42 499.66 101.42C502.55 101.42 503.89 103.42 503.89 106.25V116C503.89 118.78 502.61 120.83 499.66 120.83C496.71 120.83 495.49 118.83 495.49 116V106.25ZM496.74 116.09C496.74 118.17 497.56 119.69 499.66 119.69C501.76 119.69 502.66 118.17 502.66 116.09V106.17C502.66 104.1 501.82 102.57 499.66 102.57C497.5 102.57 496.74 104.1 496.74 106.17V116.09Z" fill="#263238"/>
<path d="M509.92 101.59C512.86 101.59 514.01 103.44 514.01 106.22V108.3C514.01 111.3 512.61 112.82 509.59 112.82H507.22V120.68H506V101.59H509.92ZM509.59 111.68C511.8 111.68 512.75 110.68 512.75 108.38V106.14C512.75 104.07 512.04 102.73 509.92 102.73H507.22V111.73L509.59 111.68Z" fill="#263238"/>
<path d="M523.93 106.2V106.6H522.73V106.11C522.73 104.11 521.97 102.57 519.9 102.57C517.83 102.57 517.06 104.07 517.06 106.09C517.06 110.72 523.96 110.8 523.96 116.09C523.96 118.84 522.76 120.86 519.84 120.86C516.92 120.86 515.73 118.86 515.73 116.09V115.09H516.93V116.15C516.93 118.15 517.72 119.67 519.82 119.67C521.92 119.67 522.71 118.19 522.71 116.15C522.71 111.57 515.81 111.49 515.81 106.15C515.81 103.29 517.06 101.43 519.87 101.4C522.68 101.37 523.93 103.44 523.93 106.2Z" fill="#263238"/>
<path d="M527.07 118.28V120.68H525.85V118.28H527.07Z" fill="#263238"/>
<path d="M530.48 118.28V120.68H529.26V118.28H530.48Z" fill="#263238"/>
<path d="M533.89 118.28V120.68H532.66V118.28H533.89Z" fill="#263238"/>
<path d="M489.13 129.36C492.13 129.36 493.22 131.21 493.22 134V136.07C493.22 139.07 491.83 140.6 488.81 140.6H486.43V148.45H485.18V129.36H489.13ZM488.81 139.45C491.01 139.45 491.97 138.45 491.97 136.15V133.91C491.97 131.84 491.26 130.51 489.13 130.51H486.43V139.45H488.81Z" fill="#263238"/>
<path d="M496.58 144.22L495.58 148.45H494.43L498.6 129.33H500.43L504.68 148.45H503.43L502.43 144.22H496.58ZM496.77 143.13H502.33L499.52 130.78L496.77 143.13Z" fill="#263238"/>
<path d="M514.77 134V135.42H513.57V133.92C513.57 131.92 512.78 130.32 510.68 130.32C508.58 130.32 507.79 131.88 507.79 133.92V143.85C507.79 145.85 508.58 147.42 510.68 147.42C512.78 147.42 513.57 145.89 513.57 143.85V139.73H511V138.59H514.73V143.77C514.73 146.52 513.53 148.59 510.61 148.59C507.69 148.59 506.5 146.52 506.5 143.77V134C506.5 131.25 507.7 129.18 510.61 129.18C513.52 129.18 514.77 131.27 514.77 134Z" fill="#263238"/>
<path d="M523.34 138.2V139.34H518.13V147.34H524.4V148.49H516.87V129.36H524.4V130.51H518.13V138.2H523.34Z" fill="#263238"/>
<path d="M531.82 148.45H530.67V129.36H532.31L538 145.48V129.36H539.14V148.45H537.75L531.75 131.45L531.82 148.45Z" fill="#263238"/>
<path d="M541.26 134C541.26 131.22 542.54 129.18 545.43 129.18C548.32 129.18 549.66 131.18 549.66 134V143.77C549.66 146.55 548.37 148.59 545.43 148.59C542.49 148.59 541.26 146.59 541.26 143.77V134ZM542.51 143.85C542.51 145.92 543.33 147.45 545.43 147.45C547.53 147.45 548.43 145.92 548.43 143.85V133.92C548.43 131.85 547.59 130.32 545.43 130.32C543.27 130.32 542.51 131.85 542.51 133.92V143.85Z" fill="#263238"/>
<path d="M555 148.45V130.51H551.13V129.36H560.13V130.51H556.23V148.45H555Z" fill="#263238"/>
<path d="M572.08 138.66V139.8H567.14V148.45H565.89V129.36H573.14V130.51H567.14V138.66H572.08Z" fill="#263238"/>
<path d="M575 134C575 131.22 576.28 129.18 579.17 129.18C582.06 129.18 583.4 131.18 583.4 134V143.77C583.4 146.55 582.12 148.59 579.17 148.59C576.22 148.59 575 146.59 575 143.77V134ZM576.25 143.85C576.25 145.92 577.07 147.45 579.17 147.45C581.27 147.45 582.17 145.92 582.17 143.85V133.92C582.17 131.85 581.33 130.32 579.17 130.32C577.01 130.32 576.25 131.85 576.25 133.92V143.85Z" fill="#263238"/>
<path d="M586.64 143.84C586.64 145.84 587.41 147.47 589.51 147.47C591.61 147.47 592.37 145.89 592.37 143.84V129.36H593.54V143.79C593.54 146.51 592.4 148.61 589.48 148.61C586.56 148.61 585.39 146.51 585.39 143.79V129.36H586.64V143.84Z" fill="#263238"/>
<path d="M596.84 148.45H595.7V129.36H597.33L603.06 145.48V129.36H604.21V148.45H602.81L596.81 131.45L596.84 148.45Z" fill="#263238"/>
<path d="M610.56 129.36C613.51 129.36 614.79 131.3 614.79 134.11V143.7C614.79 146.51 613.51 148.45 610.56 148.45H606.36V129.36H610.56ZM610.56 147.3C612.69 147.3 613.56 145.86 613.56 143.76V134.05C613.56 131.95 612.66 130.51 610.56 130.51H607.65V147.3H610.56Z" fill="#263238"/>
<path d="M674 325.13L687.61 293H695.76V325.13H699.29V331.92H695.76V340.55H688.42V331.92H674V325.13ZM688.4 325.13V307.27L680.86 325.13H688.4Z" fill="#263238"/>
<path d="M702.08 304.41C702.08 296.81 706.08 292.41 713.42 292.41C720.76 292.41 724.76 296.76 724.76 304.41V329.13C724.76 336.74 720.76 341.13 713.42 341.13C706.08 341.13 702.08 336.78 702.08 329.13V304.41ZM709.55 329.61C709.55 333.01 711.04 334.3 713.42 334.3C715.8 334.3 717.29 333.01 717.29 329.61V303.94C717.29 300.54 715.79 299.25 713.42 299.25C711.05 299.25 709.55 300.54 709.55 303.94V329.61Z" fill="#263238"/>
<path d="M727.82 325.13L741.4 293H749.55V325.13H753.08V331.92H749.55V340.55H742.21V331.92H727.82V325.13ZM742.21 325.13V307.27L734.68 325.13H742.21Z" fill="#263238"/>
<path d="M406.11 257.954C374.62 266.904 308.36 284.564 271.79 285.894C222.63 287.634 139.63 251.954 87.81 245.704C35.99 239.454 1.17 241.234 1.17 241.234" stroke="#ABABAB" stroke-width="1.193" stroke-linecap="round" stroke-linejoin="round"/>
<path d="M423.63 252.844C423.63 252.844 420.91 253.674 416.14 255.064" stroke="#263238" stroke-width="1.193" stroke-linecap="round" stroke-linejoin="round"/>
<path d="M15.16 308.514C33.3118 312.502 51.8825 314.258 70.46 313.744C108.88 312.454 150.46 307.374 201.87 300.744C253.28 294.114 326.49 330.744 376.27 317.154C426.05 303.564 422.27 299.474 422.27 299.474" stroke="#B8B8B8" stroke-width="1.193" stroke-linecap="round" stroke-linejoin="round"/>
<path d="M1 304.834C1 304.834 2.94001 305.474 6.45001 306.404" stroke="white" stroke-width="1.193" stroke-linecap="round" stroke-linejoin="round"/>
<path d="M1219.11 265.954C1187.62 274.904 1121.36 292.564 1084.79 293.894C1035.63 295.634 952.63 259.954 900.81 253.704C848.99 247.454 814.17 249.234 814.17 249.234" stroke="#ABABAB" stroke-width="1.193" stroke-linecap="round" stroke-linejoin="round"/>
<path d="M1236.63 260.844C1236.63 260.844 1233.91 261.674 1229.14 263.064" stroke="#263238" stroke-width="1.193" stroke-linecap="round" stroke-linejoin="round"/>
<path d="M828.16 316.514C846.312 320.502 864.882 322.258 883.46 321.744C921.88 320.454 963.46 315.374 1014.87 308.744C1066.28 302.114 1139.49 338.744 1189.27 325.154C1239.05 311.564 1235.27 307.474 1235.27 307.474" stroke="#B8B8B8" stroke-width="1.193" stroke-linecap="round" stroke-linejoin="round"/>
<path d="M814 312.834C814 312.834 815.94 313.474 819.45 314.404" stroke="white" stroke-width="1.193" stroke-linecap="round" stroke-linejoin="round"/>
</svg>
